<?xml version="1.0" encoding="UTF-8" standalone="no"?>
<!DOCTYPE svg PUBLIC "-//W3C//DTD SVG 1.1//EN" "http://www.w3.org/Graphics/SVG/1.1/DTD/svg11.dtd">
<svg version="1.1" xmlns="http://www.w3.org/2000/svg" xmlns:xlink="http://www.w3.org/1999/xlink" preserveAspectRatio="xMidYMid meet" viewBox="0 0 16 16" width="16" height="16"><defs><path d="M13.7 3.22C13.98 3.22 14.2 3.44 14.2 3.72C14.2 5.06 14.2 8.57 14.2 9.91C14.2 10.18 13.98 10.41 13.7 10.41C11.27 10.41 4.48 10.41 2.05 10.41C1.77 10.41 1.55 10.18 1.55 9.91C1.55 8.57 1.55 5.06 1.55 3.72C1.55 3.44 1.77 3.22 2.05 3.22C4.48 3.22 11.27 3.22 13.7 3.22Z" id="c104cKly8D"></path><path d="M12.17 10.5L13.17 10.28L13.76 12.47L12.17 10.59" id="a6p2t17wLd"></path><path d="M12.97 4.72L2.36 4.72L12.97 4.72Z" id="b8cUzUclr"></path><path d="M12.97 6.34L2.36 6.34L12.97 6.34Z" id="ajSAQmRgb"></path><path d="M12.97 8L2.36 8L12.97 8Z" id="h44tfZ8CV"></path><path d="M12.97 9.62L2.36 9.62L12.97 9.62Z" id="a1elhlrs1"></path></defs><g><g><g><use xlink:href="#c104cKly8D" opacity="1" fill="#ffffff" fill-opacity="1"></use><g><use xlink:href="#c104cKly8D" opacity="1" fill-opacity="0" stroke="#ffffff" stroke-width="0.1" stroke-opacity="1"></use></g></g><g><use xlink:href="#a6p2t17wLd" opacity="1" fill="#ffffff" fill-opacity="1"></use><g><use xlink:href="#a6p2t17wLd" opacity="1" fill-opacity="0" stroke="#ffffff" stroke-width="0.2" stroke-opacity="1"></use></g></g><g><g><use xlink:href="#b8cUzUclr" opacity="1" fill-opacity="0" stroke="#1b4057" stroke-width="0.1" stroke-opacity="1"></use></g></g><g><g><use xlink:href="#ajSAQmRgb" opacity="1" fill-opacity="0" stroke="#1b4057" stroke-width="0.1" stroke-opacity="1"></use></g></g><g><g><use xlink:href="#h44tfZ8CV" opacity="1" fill-opacity="0" stroke="#1b4057" stroke-width="0.1" stroke-opacity="1"></use></g></g><g><g><use xlink:href="#a1elhlrs1" opacity="1" fill-opacity="0" stroke="#1b4057" stroke-width="0.1" stroke-opacity="1"></use></g></g></g></g></svg>