<?xml version="1.0" standalone="no"?><svg xmlns="http://www.w3.org/2000/svg" viewBox="0 0 1440 320"><path fill="#2cc27b" fill-opacity="1" d="M0,192L40,192C80,192,160,192,240,192C320,192,400,192,480,208C560,224,640,256,720,234.7C800,213,880,139,960,133.3C1040,128,1120,192,1200,208C1280,224,1360,192,1400,176L1440,160L1440,320L1400,320C1360,320,1280,320,1200,320C1120,320,1040,320,960,320C880,320,800,320,720,320C640,320,560,320,480,320C400,320,320,320,240,320C160,320,80,320,40,320L0,320Z"></path></svg>