<?xml version="1.0" standalone="no"?><svg xmlns="http://www.w3.org/2000/svg" viewBox="0 0 1440 320"><path fill="#2cc27b" fill-opacity="1" d="M0,32L40,64C80,96,160,160,240,165.3C320,171,400,117,480,112C560,107,640,149,720,192C800,235,880,277,960,282.7C1040,288,1120,256,1200,202.7C1280,149,1360,75,1400,37.3L1440,0L1440,320L1400,320C1360,320,1280,320,1200,320C1120,320,1040,320,960,320C880,320,800,320,720,320C640,320,560,320,480,320C400,320,320,320,240,320C160,320,80,320,40,320L0,320Z"></path></svg>