<?xml version="1.0" standalone="no"?><svg xmlns="http://www.w3.org/2000/svg" viewBox="0 0 1440 320"><path fill="#2cc27b" fill-opacity="1" d="M0,256L40,250.7C80,245,160,235,240,213.3C320,192,400,160,480,133.3C560,107,640,85,720,85.3C800,85,880,107,960,138.7C1040,171,1120,213,1200,202.7C1280,192,1360,128,1400,96L1440,64L1440,320L1400,320C1360,320,1280,320,1200,320C1120,320,1040,320,960,320C880,320,800,320,720,320C640,320,560,320,480,320C400,320,320,320,240,320C160,320,80,320,40,320L0,320Z"></path></svg>