<?xml version="1.0" standalone="no"?><svg xmlns="http://www.w3.org/2000/svg" viewBox="0 0 1440 320"><path fill="#2cc27b" fill-opacity="1" d="M0,256L40,261.3C80,267,160,277,240,266.7C320,256,400,224,480,208C560,192,640,192,720,181.3C800,171,880,149,960,122.7C1040,96,1120,64,1200,58.7C1280,53,1360,75,1400,85.3L1440,96L1440,320L1400,320C1360,320,1280,320,1200,320C1120,320,1040,320,960,320C880,320,800,320,720,320C640,320,560,320,480,320C400,320,320,320,240,320C160,320,80,320,40,320L0,320Z"></path></svg>