<?xml version="1.0" standalone="no"?><svg xmlns="http://www.w3.org/2000/svg" viewBox="0 0 1440 320"><path fill="#2cc27b" fill-opacity="1" d="M0,64L40,96C80,128,160,192,240,229.3C320,267,400,277,480,282.7C560,288,640,288,720,261.3C800,235,880,181,960,165.3C1040,149,1120,171,1200,181.3C1280,192,1360,192,1400,192L1440,192L1440,320L1400,320C1360,320,1280,320,1200,320C1120,320,1040,320,960,320C880,320,800,320,720,320C640,320,560,320,480,320C400,320,320,320,240,320C160,320,80,320,40,320L0,320Z"></path></svg>